<svg xmlns="http://www.w3.org/2000/svg" viewBox="0 0 300 342.81">
    <defs>
        <style>.cls-1{fill:#147ac8;}</style>
    </defs>
    <title>Fichier 2</title>
    <g id="Calque_2" data-name="Calque 2">
        <g id="Calque_1-2" data-name="Calque 1">
            <path class="cls-1"
                  d="M153.77,59.7l7.8,2.33a113.22,113.22,0,0,1,21.09,8.71l7.14,3.81,27.48-16.49,24.63,24.62-16.5,27.52,3.86,7.16A113,113,0,0,1,238,138.44l2.34,7.78L271.44,154V188.8l-31.16,7.8-2.33,7.78a112.59,112.59,0,0,1-8.7,21.07l-3.85,7.15,16.51,27.5-24.63,24.62-27.51-16.51-7.15,3.85a112.81,112.81,0,0,1-21.06,8.7l-7.78,2.34L146,314.25H114.24v28.56h54l9.32-37.3c3.78-1.37,7.5-2.92,11.14-4.6l33,19.78,56.15-56.15-19.76-33c1.69-3.64,3.22-7.37,4.6-11.15L300,211.1V131.69l-37.28-9.31c-1.38-3.81-2.92-7.54-4.6-11.17l19.75-33L221.71,22.1l-33,19.77c-3.65-1.7-7.38-3.23-11.14-4.61L168.31,0h-54V28.56H146Z"/>
            <path class="cls-1" d="M128.61,214.27v28.56a71.41,71.41,0,0,0,0-142.82v28.56a42.85,42.85,0,0,1,0,85.69Z"/>
            <path class="cls-1" d="M57.12,57.13A28.56,28.56,0,1,0,28.55,28.56,28.57,28.57,0,0,0,57.12,57.13Z"/>
            <path class="cls-1"
                  d="M28.56,342.78H85.69V214.24h28.56V100A28.57,28.57,0,0,0,85.69,71.41L57.13,100,28.56,71.41A28.57,28.57,0,0,0,0,100V214.24H28.56Z"/>
        </g>
    </g>
</svg>