<svg fill="#92d652" xmlns="http://www.w3.org/2000/svg" xmlns:xlink="http://www.w3.org/1999/xlink" version="1.1" x="0px" y="0px" viewBox="0 0 100 100" style="enable-background:new 0 0 100 100;" xml:space="preserve"><path d="M50.2,0.8c-27,0-48.9,21.9-48.9,48.9c0,27,21.9,48.9,48.9,48.9c27,0,48.9-21.9,48.9-48.9C99.1,22.7,77.2,0.8,50.2,0.8z   M50.2,90.3c-22.4,0-40.7-18.2-40.7-40.6C9.6,27.3,27.8,9,50.2,9c22.4,0,40.6,18.2,40.6,40.6C90.9,72.1,72.6,90.3,50.2,90.3z"/><path d="M72,38c0-1-0.4-2-1.1-2.7c-1.4-1.4-3.9-1.4-5.4,0L44.9,55.9l-10-10c-0.7-0.7-1.7-1.1-2.7-1.1  c-1,0-1.9,0.4-2.7,1.1c-0.7,0.7-1.1,1.7-1.1,2.7c0,1,0.4,2,1.1,2.7L42.2,64c1.4,1.4,4,1.4,5.4,0l23.2-23.2C71.6,40,72,39.1,72,38z"/></svg>