<svg fill="#ffffff" xmlns="http://www.w3.org/2000/svg" xmlns:xlink="http://www.w3.org/1999/xlink" version="1.1" x="0px" y="0px" viewBox="0 0 100 100" enable-background="new 0 0 100 100" xml:space="preserve">
<path d="M50.875,14.345c-1.22-3.327-3.663-5.979-6.879-7.469C37.358,3.8,29.458,6.699,26.383,13.337L10.745,47.095  c-1.489,3.215-1.638,6.817-0.418,10.145c1.221,3.327,3.663,5.979,6.879,7.469c1.775,0.822,3.669,1.236,5.568,1.236  c1.541,0,3.087-0.272,4.577-0.819c3.327-1.22,5.979-3.663,7.469-6.879l15.638-33.757C51.947,21.274,52.096,17.671,50.875,14.345z   M33.006,57.406c-2.612,5.638-9.326,8.097-14.96,5.487c-5.637-2.611-8.098-9.322-5.486-14.959l7.338-15.842l20.446,9.472  L33.006,57.406z M48.644,23.649l-7.459,16.102l-20.446-9.472l7.459-16.102C30.809,8.542,37.52,6.08,43.156,8.69  C48.793,11.302,51.255,18.012,48.644,23.649z"/><path d="M50.497,62.811c-9.025,2.605-14.249,12.066-11.646,21.092c1.262,4.372,4.15,7.991,8.134,10.19  c2.557,1.412,5.368,2.131,8.21,2.131c1.586,0,3.182-0.225,4.748-0.676c9.024-2.604,14.248-12.065,11.645-21.092  C68.983,65.432,59.528,60.207,50.497,62.811z M51.052,64.732c1.387-0.4,2.785-0.591,4.162-0.591c6.443,0,12.388,4.183,14.368,10.617  l-28.728,8.289c-0.051,0.015-0.088,0.048-0.134,0.07C38.574,75.222,43.162,67.009,51.052,64.732z M59.389,93.626  c-3.857,1.113-7.92,0.657-11.437-1.283c-3.006-1.66-5.298-4.241-6.597-7.366c0.018-0.004,0.035-0.002,0.053-0.008l28.635-8.262  C71.286,84.13,66.79,91.491,59.389,93.626z"/><path d="M79.394,21.544c-6.61,0-11.988,5.378-11.988,11.988s5.378,11.988,11.988,11.988s11.988-5.378,11.988-11.988  S86.004,21.544,79.394,21.544z M79.394,43.521c-5.508,0-9.988-4.48-9.988-9.988s4.48-9.988,9.988-9.988s9.988,4.48,9.988,9.988  S84.901,43.521,79.394,43.521z"/><path d="M85.642,32.532c-0.553,0-1,0.447-1,1c0,2.894-2.354,5.248-5.248,5.248c-0.553,0-1,0.447-1,1s0.447,1,1,1  c3.997,0,7.248-3.251,7.248-7.248C86.642,32.979,86.194,32.532,85.642,32.532z"/><path d="M39.522,11.411c-5.262-1.151-8.348,3.039-9.239,5.416c-0.193,0.517,0.067,1.091,0.583,1.285  c0.116,0.044,0.235,0.065,0.353,0.065c0.403,0,0.784-0.246,0.937-0.646c0.081-0.214,2.05-5.229,6.939-4.168  c0.543,0.118,1.073-0.225,1.19-0.763C40.403,12.062,40.062,11.528,39.522,11.411z"/><path d="M29.173,21.041c-0.5-0.233-1.096-0.015-1.327,0.487l-3.008,6.494c-0.232,0.501-0.015,1.095,0.487,1.327  c0.136,0.063,0.278,0.093,0.419,0.093c0.378,0,0.739-0.215,0.908-0.58l3.008-6.494C29.893,21.867,29.675,21.273,29.173,21.041z"/>
</svg>