<svg fill="#ffffff" xmlns="http://www.w3.org/2000/svg" xmlns:xlink="http://www.w3.org/1999/xlink" version="1.1" x="0px" y="0px" viewBox="0 0 100 100" style="enable-background:new 0 0 100 100;" xml:space="preserve"><g><path d="M71.3,89.7c3.8,0,6.9-3,7-6.8l1.9-56.2h6.5v-6H66.6v-3.3c0-4-3.2-7.2-7.2-7.2H40.6c-4,0-7.2,3.2-7.2,7.2v3.3H13.3v6h6.5   l1.9,56.2c0.1,3.8,3.2,6.8,7,6.8H71.3z M39.4,17.5c0-0.7,0.5-1.2,1.2-1.2h18.8c0.7,0,1.2,0.5,1.2,1.2v3.3H39.4V17.5z M27.7,82.7   l-1.9-56h48.2l-1.9,56c0,0.5-0.5,1-1,1H28.7C28.2,83.7,27.8,83.3,27.7,82.7z"/><rect x="47" y="40" width="6" height="29.9"/><rect x="35" y="40" width="6" height="29.9"/><rect x="59" y="40" width="6" height="29.9"/></g></svg>