<svg fill="#d0d0d0" xmlns="http://www.w3.org/2000/svg" viewBox="0 0 67.9 28.7">
    <title>sort</title>
    <g id="Calque_2" data-name="Calque 2">
        <g id="Calque_1-2" data-name="Calque 1">
            <path d="M48.85,6.05h0a4,4,0,0,0-2.5,1l-15.4,15.7a3.5,3.5,0,0,0,5,4.9l12.9-13.1,13.1,13.1a3.38,3.38,0,0,0,4.9,0,3.5,3.5,0,0,0,0-5L51.25,7.05A3.1,3.1,0,0,0,48.85,6.05Z"/>
            <path d="M16.65,21.65a3.32,3.32,0,0,0,2.5,1h0a4,4,0,0,0,2.5-1L36.95,6a3.47,3.47,0,0,0,0-4.9,3.59,3.59,0,0,0-5,0L19,14.25,5.95,1.05a3.38,3.38,0,0,0-4.9,0,3.5,3.5,0,0,0,0,5Z"/>
        </g>
    </g>
</svg>