<svg fill="#ccc" xmlns="http://www.w3.org/2000/svg" xmlns:xlink="http://www.w3.org/1999/xlink" version="1.1" x="0px" y="0px" viewBox="0 0 144.083 144" enable-background="new 0 0 144.083 144" xml:space="preserve"><path d="M86.12,25.624H46.347c-6.117,0-11.093,4.976-11.093,11.092v70.744c0,6.117,4.976,11.092,11.093,11.092h51.56  c6.115,0,11.092-4.975,11.092-11.092V51.193L86.12,25.624z M86.95,31.05l17.193,19.216H86.95V31.05z M105.999,107.459  c0,4.463-3.631,8.092-8.092,8.092h-51.56c-4.462,0-8.093-3.629-8.093-8.092V36.715c0-4.462,3.63-8.092,8.093-8.092H83.95v24.643  h22.049V107.459z"/><polygon points="58.486,77.707 60.766,79.656 70.376,68.416 70.376,97.01 73.375,97.01 73.375,68.416 82.987,79.656 85.266,77.707   71.876,62.044 "/></svg>